#tb 0: 1/48000
#media_type 0: audio
#codec_id 0: pcm_s16le
#sample_rate 0: 48000
#channel_layout_name 0: stereo
0,          0,          0,     1024,     4096, 0x8d8ae154
0,       1024,       1024,     1024,     4096, 0xffcf652c
0,       2048,       2048,     1024,     4096, 0x6793d8f4
0,       3072,       3072,     1024,     4096, 0xdab77043
0,       4096,       4096,     1024,     4096, 0x1195c256
0,       5120,       5120,     1024,     4096, 0x4e94a236
0,       6144,       6144,     1024,     4096, 0x2425d6de
0,       7168,       7168,     1024,     4096, 0xf869f5cd
0,       8192,       8192,     1024,     4096, 0x9d4bef1d
0,       9216,       9216,     1024,     4096, 0xbb4ae2c8
0,      10240,      10240,     1024,     4096, 0x95500ead
0,      11264,      11264,     1024,     4096, 0x94220933
0,      12288,      12288,     1024,     4096, 0xa2a6f9c2
0,      13312,      13312,     1024,     4096, 0x81cce378
0,      14336,      14336,     1024,     4096, 0x243f0a9f
0,      15360,      15360,     1024,     4096, 0xa02df83e
0,      16384,      16384,     1024,     4096, 0x8b29063b
0,      17408,      17408,     1024,     4096, 0xb76a0a5a
0,      18432,      18432,     1024,     4096, 0x60cfe307
0,      19456,      19456,     1024,     4096, 0x22a70809
0,      20480,      20480,     1024,     4096, 0x22a4ea69
0,      21504,      21504,     1024,     4096, 0xc10b12a1
0,      22528,      22528,     1024,     4096, 0xecaeedc6
0,      23552,      23552,     1024,     4096, 0x4c2e2cb4
0,      24576,      24576,     1024,     4096, 0xa204b772
0,      25600,      25600,     1024,     4096, 0x450104a5
0,      26624,      26624,     1024,     4096, 0x266f365c
0,      27648,      27648,     1024,     4096, 0x275a8dd5
0,      28672,      28672,     1024,     4096, 0xdecb0a07
0,      29696,      29696,     1024,     4096, 0x940f6372
0,      30720,      30720,     1024,     4096, 0xe0e3c0c9
0,      31744,      31744,     1024,     4096, 0x14091efa
0,      32768,      32768,     1024,     4096, 0xfb64e0ba
0,      33792,      33792,     1024,     4096, 0x4a2ff162
0,      34816,      34816,     1024,     4096, 0x74aa0cf6
0,      35840,      35840,     1024,     4096, 0x3b5bd5b2
0,      36864,      36864,     1024,     4096, 0xdc860c38
0,      37888,      37888,     1024,     4096, 0x4e0c7785
0,      38912,      38912,     1024,     4096, 0x8dc02fa8
0,      39936,      39936,     1024,     4096, 0x65a00d8f
0,      40960,      40960,     1024,     4096, 0xaa68bd4d
0,      41984,      41984,     1024,     4096, 0x2b111ac3
0,      43008,      43008,     1024,     4096, 0x32e93da7
0,      44032,      44032,     1024,     4096, 0x688518fe
0,      45056,      45056,     1024,     4096, 0x02b1df7a
0,      46080,      46080,     1024,     4096, 0xdb729f04
0,      47104,      47104,     1024,     4096, 0x4b4b325f
0,      48128,      48128,     1024,     4096, 0xe18b21ed
0,      49152,      49152,     1024,     4096, 0x908b1f34
0,      50176,      50176,     1024,     4096, 0x61a3ab7a
0,      51200,      51200,     1024,     4096, 0xdbfc0422
0,      52224,      52224,     1024,     4096, 0xb8bcea1b
0,      53248,      53248,     1024,     4096, 0xa5e6f835
0,      54272,      54272,     1024,     4096, 0xe835eca2
0,      55296,      55296,     1024,     4096, 0xf2f619ed
0,      56320,      56320,     1024,     4096, 0xd5002156
0,      57344,      57344,     1024,     4096, 0xac84f317
0,      58368,      58368,     1024,     4096, 0xebeee481
0,      59392,      59392,     1024,     4096, 0x17310b5e
0,      60416,      60416,     1024,     4096, 0xd991cffd
0,      61440,      61440,     1024,     4096, 0xdc331f4f
0,      62464,      62464,     1024,     4096, 0xf0b4dd46
0,      63488,      63488,     1024,     4096, 0x3308daa8
0,      64512,      64512,     1024,     4096, 0x471f2da9
0,      65536,      65536,     1024,     4096, 0xb81f0c4f
0,      66560,      66560,     1024,     4096, 0x94ad1639
0,      67584,      67584,     1024,     4096, 0xa5c7db9e
0,      68608,      68608,     1024,     4096, 0x849ff7e6
0,      69632,      69632,     1024,     4096, 0x3340008e
0,      70656,      70656,     1024,     4096, 0xa5e6162a
0,      71680,      71680,     1024,     4096, 0x0119eada
0,      72704,      72704,     1024,     4096, 0x6d22fd4d
0,      73728,      73728,     1024,     4096, 0x35242749
0,      74752,      74752,     1024,     4096, 0xc00ccdaa
0,      75776,      75776,     1024,     4096, 0x54ab0e9e
0,      76800,      76800,     1024,     4096, 0xc757eb39
0,      77824,      77824,     1024,     4096, 0x478bd745
0,      78848,      78848,     1024,     4096, 0x90450ac3
0,      79872,      79872,     1024,     4096, 0x4ceee70d
0,      80896,      80896,     1024,     4096, 0x255ededa
0,      81920,      81920,     1024,     4096, 0x56e72fe5
0,      82944,      82944,     1024,     4096, 0x3fa0fa21
0,      83968,      83968,     1024,     4096, 0xf39fe182
0,      84992,      84992,     1024,     4096, 0x2d1ed8b9
0,      86016,      86016,     1024,     4096, 0xbce00fee
0,      87040,      87040,     1024,     4096, 0xe90fd7fd
0,      88064,      88064,     1024,     4096, 0xcd5fef10
0,      89088,      89088,     1024,     4096, 0xb900e21e
0,      90112,      90112,     1024,     4096, 0xb52be8b9
0,      91136,      91136,     1024,     4096, 0x60800bfb
0,      92160,      92160,     1024,     4096, 0x8bcc0a06
0,      93184,      93184,     1024,     4096, 0x7197e002
0,      94208,      94208,     1024,     4096, 0x5502f429
0,      95232,      95232,     1024,     4096, 0x48ec08aa
0,      96256,      96256,     1024,     4096, 0x02af1792
0,      97280,      97280,     1024,     4096, 0xbf22ea59
0,      98304,      98304,     1024,     4096, 0x37a9f1af
0,      99328,      99328,     1024,     4096, 0x81682095
0,     100352,     100352,     1024,     4096, 0xf83208da
0,     101376,     101376,     1024,     4096, 0x23ded08e
0,     102400,     102400,     1024,     4096, 0xfb79d9fb
0,     103424,     103424,     1024,     4096, 0xecd2021b
0,     104448,     104448,     1024,     4096, 0x8dedea90
0,     105472,     105472,     1024,     4096, 0x9d820ad6
0,     106496,     106496,     1024,     4096, 0x008bcc8a
0,     107520,     107520,     1024,     4096, 0x6628e42a
0,     108544,     108544,     1024,     4096, 0x791fe00e
0,     109568,     109568,     1024,     4096, 0x00d90222
0,     110592,     110592,     1024,     4096, 0x8067d506
0,     111616,     111616,     1024,     4096, 0x212e07e8
0,     112640,     112640,     1024,     4096, 0xbbdb0a13
0,     113664,     113664,     1024,     4096, 0x01f8ea84
0,     114688,     114688,     1024,     4096, 0x1e08e77a
0,     115712,     115712,     1024,     4096, 0x4456f6a5
0,     116736,     116736,     1024,     4096, 0x5292ea75
0,     117760,     117760,     1024,     4096, 0xb388355b
0,     118784,     118784,     1024,     4096, 0x7946f14e
0,     119808,     119808,     1024,     4096, 0x16e7daf3
0,     120832,     120832,     1024,     4096, 0xe357d474
0,     121856,     121856,     1024,     4096, 0x1928d3d0
0,     122880,     122880,     1024,     4096, 0xb0260d75
0,     123904,     123904,     1024,     4096, 0xf805e522
0,     124928,     124928,     1024,     4096, 0x11d4f806
0,     125952,     125952,     1024,     4096, 0xa68500eb
0,     126976,     126976,     1024,     4096, 0xa410e4ec
0,     128000,     128000,     1024,     4096, 0xc20b1330
0,     129024,     129024,     1024,     4096, 0x0e180217
0,     130048,     130048,     1024,     4096, 0xfbdde307
0,     131072,     131072,     1024,     4096, 0x00bbba39
0,     132096,     132096,     1024,     4096, 0x9f80ee16
0,     133120,     133120,     1024,     4096, 0xd596ef75
0,     134144,     134144,     1024,     4096, 0x4cf1e95f
0,     135168,     135168,     1024,     4096, 0xe90cfebf
0,     136192,     136192,     1024,     4096, 0xd1bcee4c
0,     137216,     137216,     1024,     4096, 0x22c7f307
0,     138240,     138240,     1024,     4096, 0x4cbae34e
0,     139264,     139264,     1024,     4096, 0x504dc53d
0,     140288,     140288,     1024,     4096, 0x159903df
0,     141312,     141312,     1024,     4096, 0xa8d8e964
0,     142336,     142336,     1024,     4096, 0xc3c705df
0,     143360,     143360,     1024,     4096, 0x765d18a3
0,     144384,     144384,     1024,     4096, 0xb29bbc30
0,     145408,     145408,     1024,     4096, 0x79710b4c
0,     146432,     146432,     1024,     4096, 0x12baca07
0,     147456,     147456,     1024,     4096, 0xf79a1ae2
0,     148480,     148480,     1024,     4096, 0x8ada34db
0,     149504,     149504,     1024,     4096, 0xb599ece4
0,     150528,     150528,     1024,     4096, 0xf3b3fd10
0,     151552,     151552,     1024,     4096, 0x192bb956
0,     152576,     152576,     1024,     4096, 0x9b3fb02e
0,     153600,     153600,     1024,     4096, 0x9d02df87
0,     154624,     154624,     1024,     4096, 0x346202db
0,     155648,     155648,     1024,     4096, 0x25558559
0,     156672,     156672,     1024,     4096, 0xd6a19d3f
0,     157696,     157696,     1024,     4096, 0x09a28f3f
0,     158720,     158720,     1024,     4096, 0x781512c2
0,     159744,     159744,     1024,     4096, 0xa0b13028
0,     160768,     160768,     1024,     4096, 0xa2bb286a
0,     161792,     161792,     1024,     4096, 0x50e30323
0,     162816,     162816,     1024,     4096, 0xa27980ee
0,     163840,     163840,     1024,     4096, 0x061bccdc
0,     164864,     164864,     1024,     4096, 0x21ca20b5
0,     165888,     165888,     1024,     4096, 0x779a0c4f
0,     166912,     166912,     1024,     4096, 0x72d3126e
0,     167936,     167936,     1024,     4096, 0x9dcf7f61
0,     168960,     168960,     1024,     4096, 0xba471c4c
0,     169984,     169984,     1024,     4096, 0x281ee63a
0,     171008,     171008,     1024,     4096, 0x5c2dbd95
0,     172032,     172032,     1024,     4096, 0x0899436e
0,     173056,     173056,     1024,     4096, 0x188931ed
0,     174080,     174080,     1024,     4096, 0xb6fbd4c2
0,     175104,     175104,     1024,     4096, 0xd24a4a8b
0,     176128,     176128,     1024,     4096, 0x5a36545e
0,     177152,     177152,     1024,     4096, 0x736bf6e0
0,     178176,     178176,     1024,     4096, 0x7d9d2f96
0,     179200,     179200,     1024,     4096, 0xedbabf65
0,     180224,     180224,     1024,     4096, 0x37671df7
0,     181248,     181248,     1024,     4096, 0xb0613ac2
0,     182272,     182272,     1024,     4096, 0x813f2e04
0,     183296,     183296,     1024,     4096, 0xbd194ef1
0,     184320,     184320,     1024,     4096, 0x9a823b47
0,     185344,     185344,     1024,     4096, 0xaad629d5
0,     186368,     186368,     1024,     4096, 0x251ab292
0,     187392,     187392,     1024,     4096, 0xcc224e2a
0,     188416,     188416,     1024,     4096, 0xac148ebf
0,     189440,     189440,     1024,     4096, 0xad7624e3
0,     190464,     190464,     1024,     4096, 0xc5c13c77
0,     191488,     191488,     1024,     4096, 0x36e42722
0,     192512,     192512,     1024,     4096, 0xd8860bc0
0,     193536,     193536,     1024,     4096, 0x4ed90e90
0,     194560,     194560,     1024,     4096, 0xa8783ac5
0,     195584,     195584,     1024,     4096, 0x2ebc6bb0
0,     196608,     196608,     1024,     4096, 0x3a1d40b5
0,     197632,     197632,     1024,     4096, 0x19ed277d
0,     198656,     198656,     1024,     4096, 0xd98e04dd
0,     199680,     199680,     1024,     4096, 0x03fd19d3
0,     200704,     200704,     1024,     4096, 0x656ab38a
0,     201728,     201728,     1024,     4096, 0x19ea6511
0,     202752,     202752,     1024,     4096, 0x04db06ad
0,     203776,     203776,     1024,     4096, 0x4a4802f1
0,     204800,     204800,     1024,     4096, 0xa10e97e1
0,     205824,     205824,     1024,     4096, 0x794f70f3
0,     206848,     206848,     1024,     4096, 0xced704dd
0,     207872,     207872,     1024,     4096, 0x6666e19b
0,     208896,     208896,     1024,     4096, 0xcfb8007f
0,     209920,     209920,     1024,     4096, 0x4ad31336
0,     210944,     210944,     1024,     4096, 0x7752db9c
0,     211968,     211968,     1024,     4096, 0xbaa7c5b4
0,     212992,     212992,     1024,     4096, 0x6456f689
0,     214016,     214016,     1024,     4096, 0xacfd8f75
0,     215040,     215040,     1024,     4096, 0x8e3f2d81
0,     216064,     216064,     1024,     4096, 0x39d6e19e
0,     217088,     217088,     1024,     4096, 0xd53b90f7
0,     218112,     218112,     1024,     4096, 0x9450e8f0
0,     219136,     219136,     1024,     4096, 0x9832b5cf
0,     220160,     220160,     1024,     4096, 0x7dd305b1
0,     221184,     221184,     1024,     4096, 0xdeb3687d
0,     222208,     222208,     1024,     4096, 0x6a1994d2
0,     223232,     223232,     1024,     4096, 0xa464ea81
0,     224256,     224256,     1024,     4096, 0xf25be076
